<svg xmlns="http://www.w3.org/2000/svg" viewBox="0 0 100 100.55"><defs><style>.bc-cls-1{fill:#ef4138;fill-rule:evenodd}</style></defs><path class="bc-cls-1" d="M6.71,73.22s1.28-.3,1.43-.27c6.63-1.76,12.16-2.94,19.16-4.79,8.18,8.56,17.95,13.25,30.18,9.83,12.02-3.36,18.81-11.69,21.39-23.65,7.13-1.94,14-3.81,20.89-5.69,1.96,15.55-8.28,40.13-32.68,48.92-23.23,8.37-50.32-1.13-62.14-25.62C-6.43,48.39,2.57,20.33,24.35,6.99,44.22-5.19,70.02-.07,81.13,11.74c-.58.31-1.26.55-1.78.98-5.02,4.08-10.01,8.19-14.95,12.25-11.62-5.28-22.67-5.27-32.57,2.98-9.77,8.14-12.07,19.09-8.93,31.42l-16.18,13.86Z"/></svg>
