<svg xmlns="http://www.w3.org/2000/svg" xmlns:xlink="http://www.w3.org/1999/xlink" viewBox="0 0 100 100"><defs><style>.st0{fill:#fff}.st1{fill:url(#radial-gradient)}.st2{fill:url(#radial-gradient1)}</style><radialGradient id="radial-gradient" cx="-989.22" cy="-471.39" fx="-989.22" fy="-471.39" r="65" gradientTransform="translate(-631.54 -1378.5) rotate(-90) scale(1.5 -1.4)" gradientUnits="userSpaceOnUse"><stop offset="0" stop-color="#fd5"/><stop offset=".1" stop-color="#fd5"/><stop offset=".5" stop-color="#ff543e"/><stop offset="1" stop-color="#c837ab"/></radialGradient><radialGradient id="radial-gradient1" cx="-39.92" cy="331.83" fx="-39.92" fy="331.83" r="65" gradientTransform="translate(-910.87 214.42) rotate(78.68) scale(.67 -2.77)" gradientUnits="userSpaceOnUse"><stop offset="0" stop-color="#3771c8"/><stop offset=".13" stop-color="#3771c8"/><stop offset="1" stop-color="#60f" stop-opacity="0"/></radialGradient></defs><path class="st1" d="M50.02.76c-20.56,0-26.57.02-27.74.12-4.22.35-6.85,1.02-9.71,2.44-2.2,1.09-3.94,2.36-5.66,4.14-3.12,3.24-5.02,7.23-5.7,11.98-.33,2.3-.43,2.77-.45,14.54,0,3.92,0,9.08,0,16,0,20.55.02,26.55.12,27.72.34,4.11.98,6.69,2.35,9.52,2.61,5.41,7.58,9.47,13.45,10.98,2.03.52,4.27.81,7.15.95,1.22.05,13.65.09,26.09.09s24.88-.02,26.07-.08c3.33-.16,5.27-.42,7.41-.97,5.9-1.52,10.79-5.52,13.45-11.01,1.34-2.76,2.02-5.44,2.32-9.33.07-.85.09-14.38.09-27.89s-.03-27.02-.1-27.86c-.31-3.95-.99-6.61-2.37-9.42-1.13-2.3-2.39-4.02-4.22-5.78-3.26-3.11-7.24-5.01-11.99-5.69-2.3-.33-2.76-.43-14.53-.45h-16.03Z"/><path class="st2" d="M50.02.76c-20.56,0-26.57.02-27.74.12-4.22.35-6.85,1.02-9.71,2.44-2.2,1.09-3.94,2.36-5.66,4.14-3.12,3.24-5.02,7.23-5.7,11.98-.33,2.3-.43,2.77-.45,14.54,0,3.92,0,9.08,0,16,0,20.55.02,26.55.12,27.72.34,4.11.98,6.69,2.35,9.52,2.61,5.41,7.58,9.47,13.45,10.98,2.03.52,4.27.81,7.15.95,1.22.05,13.65.09,26.09.09s24.88-.02,26.07-.08c3.33-.16,5.27-.42,7.41-.97,5.9-1.52,10.79-5.52,13.45-11.01,1.34-2.76,2.02-5.44,2.32-9.33.07-.85.09-14.38.09-27.89s-.03-27.02-.1-27.86c-.31-3.95-.99-6.61-2.37-9.42-1.13-2.3-2.39-4.02-4.22-5.78-3.26-3.11-7.24-5.01-11.99-5.69-2.3-.33-2.76-.43-14.53-.45h-16.03Z"/><path class="st0" d="M50,13.64c-9.88,0-11.11.04-14.99.22-3.87.18-6.51.79-8.83,1.69-2.39.93-4.42,2.17-6.44,4.19-2.02,2.02-3.27,4.05-4.2,6.44-.9,2.31-1.52,4.96-1.69,8.83-.17,3.88-.22,5.12-.22,14.99s.04,11.11.22,14.99c.18,3.87.79,6.51,1.69,8.83.93,2.39,2.17,4.42,4.19,6.44,2.02,2.02,4.05,3.27,6.44,4.2,2.31.9,4.96,1.51,8.83,1.69,3.88.18,5.12.22,14.99.22s11.11-.04,14.99-.22c3.87-.18,6.52-.79,8.83-1.69,2.39-.93,4.42-2.17,6.44-4.2,2.02-2.02,3.27-4.05,4.2-6.44.89-2.31,1.51-4.96,1.69-8.83.17-3.88.22-5.12.22-14.99s-.05-11.12-.22-14.99c-.18-3.87-.8-6.51-1.69-8.83-.93-2.39-2.17-4.42-4.2-6.44-2.02-2.02-4.05-3.27-6.44-4.19-2.32-.9-4.96-1.51-8.83-1.69-3.88-.18-5.11-.22-14.99-.22h.01ZM46.74,20.19c.97,0,2.05,0,3.26,0,9.71,0,10.86.03,14.69.21,3.55.16,5.47.75,6.75,1.25,1.7.66,2.91,1.45,4.18,2.72,1.27,1.27,2.06,2.48,2.72,4.18.5,1.28,1.09,3.2,1.25,6.75.17,3.83.21,4.98.21,14.69s-.04,10.86-.21,14.69c-.16,3.55-.75,5.47-1.25,6.75-.66,1.7-1.45,2.91-2.72,4.18-1.27,1.27-2.48,2.06-4.18,2.72-1.28.5-3.21,1.09-6.75,1.25-3.83.17-4.98.21-14.69.21s-10.86-.04-14.69-.21c-3.55-.16-5.47-.76-6.75-1.25-1.7-.66-2.91-1.45-4.18-2.72-1.27-1.27-2.06-2.48-2.72-4.18-.5-1.28-1.09-3.2-1.25-6.75-.17-3.83-.21-4.98-.21-14.7s.03-10.86.21-14.69c.16-3.55.75-5.47,1.25-6.75.66-1.7,1.45-2.91,2.72-4.18,1.27-1.27,2.48-2.06,4.18-2.72,1.28-.5,3.21-1.09,6.75-1.25,3.35-.15,4.65-.2,11.43-.2h0ZM69.41,26.23c-2.41,0-4.36,1.95-4.36,4.36s1.95,4.36,4.36,4.36,4.36-1.95,4.36-4.36-1.95-4.36-4.36-4.36h0ZM50,31.33c-10.31,0-18.67,8.36-18.67,18.67s8.36,18.67,18.67,18.67c10.31,0,18.67-8.36,18.67-18.67s-8.36-18.67-18.67-18.67h0ZM50,37.88c6.69,0,12.12,5.43,12.12,12.12s-5.43,12.12-12.12,12.12-12.12-5.43-12.12-12.12,5.43-12.12,12.12-12.12Z"/></svg>
