<svg xmlns="http://www.w3.org/2000/svg" xmlns:xlink="http://www.w3.org/1999/xlink" viewBox="0 0 100 100"><defs><style>.cls-1{fill:#fff}.cls-2{fill:none}.cls-3{fill:#f9f9f9}.cls-4{fill:url(#linear-gradient)}</style><linearGradient id="linear-gradient" x1="-432.45" y1="115.46" x2="-432.35" y2="115.46" gradientTransform="translate(118597.75 874275.4) rotate(67.33) scale(1971.17 -1971.17)" gradientUnits="userSpaceOnUse"><stop offset="0" stop-color="#ef1970"/><stop offset=".14" stop-color="#f23b5c"/><stop offset=".44" stop-color="#f77d35"/><stop offset=".7" stop-color="#fcad18"/><stop offset=".89" stop-color="#fecb07"/><stop offset="1" stop-color="#ffd600"/></linearGradient></defs><circle class="cls-4" cx="50" cy="50" r="50"/><path class="cls-1" d="M11.51,37.04c-.29-.39-.87-.58-1.26-.29-.39.29-.58.87-.29,1.26.29.39.87.58,1.26.29.48-.29.58-.87.29-1.26"/><path class="cls-1" d="M65.18,12.96c-.29-.39-.87-.58-1.26-.29-.39.29-.58.87-.29,1.26.29.39.87.58,1.26.29.48-.19.58-.77.29-1.26"/><path class="cls-1" d="M76.31,49.03c-.1.58.19,1.16.77,1.26.58.1,1.16-.19,1.26-.77s-.19-1.16-.77-1.26c-.58-.19-1.16.19-1.26.77"/><path class="cls-1" d="M60.25,84.82c-.1.48.19.87.58.97.48.1.87-.19.97-.58.1-.39-.19-.87-.58-.97-.39-.1-.77.1-.97.58"/><path class="cls-1" d="M18.57,20.5c-.1.29.1.58.39.58.29.1.58-.1.58-.39.1-.29-.1-.58-.39-.58s-.58.1-.58.39"/><path class="cls-1" d="M21.18,67.7c-.1-.39-.48-.68-.77-.58-.39.1-.68.48-.58.77.1.39.48.68.77.58.39,0,.58-.39.58-.77"/><path class="cls-2" d="M42.36,9.86s-7.93,2.13-7.25,10.54c.58,7.45,4.55,11.51,12.67,8.32,8.12-3.19,9.57-5.32,7.54-11.51-2.03-6.19-4.35-10.35-12.96-7.35h0Z"/><path class="cls-1" d="M88.39,80.95c-.29-.58-6.19-9.67-6.96-17.31-.58-5.32-7.45-11.12-11.61-14.22-1.35-.97-1.55-2.9-.58-4.26.1-.1.19-.29.39-.39,4.06-3.87,11.32-11.41,13.64-15.38,2.13-4.16,3.29-8.8,3.29-13.44-2.8-3-6-5.71-9.48-7.93-3.39,1.64-4.26,6.87-5.71,12.86-2.03,8.22-6.77,7.25-8.7,7.25s-.77-2.9-5.22-15.76C53-.48,41.3,2.71,32.4,8.03c-11.32,6.77-6.29,21.18-3.48,30.46-1.55,1.55-7.54,2.71-12.96,5.61-6.67,3.58-13.64,9.48-15.38,12.09.48,3.68,1.26,7.16,2.51,10.64.39.39.87.68,1.35.87,3.19,1.45,7.83-1.06,12.28-5.61,1.35-1.35,2.8-2.42,4.45-3.39,3.58-2.32,7.35-4.06,11.41-5.32,0,0,4.35,6.67,8.41,14.6,4.06,7.93-4.35,10.54-5.32,10.54s-14.12-1.26-11.22,9.96c2.9,11.22,19.05,7.16,27.27,1.74,8.22-5.42,6.19-23.11,6.19-23.11,8.03-1.26,10.54,7.25,11.32,11.61.77,4.35-.97,11.9,7.16,12.09,1.16,0,2.32-.19,3.39-.48,3.09-2.32,6-4.93,8.41-7.93.1-.48.19-.97.19-1.45h0ZM47.78,28.72c-8.22,3.09-12.19-.97-12.67-8.32-.58-8.32,7.25-10.54,7.25-10.54,8.7-2.9,11.03,1.26,13.06,7.45,2.03,6.19.48,8.32-7.64,11.41Z"/><path class="cls-1" d="M88.3,37.14l-2.22,1.06-.58,2.51-1.06-2.22-2.51-.58,2.22-1.06.58-2.51,1.06,2.22,2.51.58Z"/><path class="cls-3" d="M52.42,18.76c.48,1.06.68,2.32.39,3.48"/><path class="cls-1" d="M52.8,23.31h-.19c-.58-.1-.97-.68-.87-1.26.29-.97.1-2.03-.29-2.9-.19-.58.1-1.16.68-1.35.48-.19.97.1,1.26.48.58,1.26.77,2.71.39,4.06,0,.58-.48.97-.97.97Z"/><path class="cls-3" d="M49.9,12.96c.29.39.58.77.77,1.16"/><path class="cls-1" d="M50.68,15.18c-.39,0-.77-.19-.97-.58s-.39-.68-.58-.97c-.39-.39-.39-1.06,0-1.45s1.06-.39,1.45,0c.39.48.68.97.97,1.45.29.48.1,1.16-.48,1.45-.19,0-.29.1-.39.1Z"/></svg>
